# xmcd
#
# Track frame offsets:
# 150
# 13025
# 25333
# 36988
# 50125
# 59598
# 71563
# 80835
# 92388
# 105463
#
# Disc length: 1564 seconds
#
#
# Revision: 1
# Processed by: cddbd v1.5.1PL0 Copyright (c) Steve Scherf et al.
# Submitted via: FreeRIP 2.931 
#
DISCID=85061a0a
DTITLE=Ernest Tubb - Ernest Tubb and Friends
DYEAR=1992
DGENRE=Country
TTITLE0=Papers and Pens
TTITLE1=There's a Little Bit of Everything in Texas (w/ Roy Clark)
TTITLE2=Letters Have No Arms (w/ Kris Kristofferson)
TTITLE3=Driftwood on the River (w/ Billy Walker)
TTITLE4=Walking the Floor Over You (w/ Merle Haggard and Charlie Daniels)
TTITLE5=Half a Mind (w/ George Jones)
TTITLE6=Jealous Loving Heart (w/ Johnny Cash)
TTITLE7=I'm Gonna Make My Home (A Million Miles From Here)
TTITLE8=I'll Always Be Glad to Take You Home (w/ Chip Taylor)
TTITLE9=A Month of Sundays
EXTD=
EXTT0=
EXTT1=
EXTT2=
EXTT3=
EXTT4=
EXTT5=
EXTT6=
EXTT7=
EXTT8=
EXTT9=
PLAYORDER=
